<?xml version="1.0" ?>
<!DOCTYPE svg  PUBLIC '-//W3C//DTD SVG 1.1//EN'  'http://www.w3.org/Graphics/SVG/1.1/DTD/svg11.dtd'>
<svg enable-background="new 0 0 56.693 56.693" height="56.693px" id="Layer_1" version="1.1" viewBox="0 0 56.693 56.693" width="56.693px" xml:space="preserve" xmlns="http://www.w3.org/2000/svg" xmlns:xlink="http://www.w3.org/1999/xlink">
  <path d="
M28.348,5.158c-13.6,0-24.625,11.023-24.625,24.623c0,13.6,11.025,24.625,24.625,24.625
c13.598,0,24.623-11.025,24.623-24.625C52.971,16.181,41.945,5.158,28.348,5.158z

M21,19H36c1.105,0,2,0.895,2,2V36c0,1.105-0.895,2-2,2H21c-1.105,0-2-0.895-2-2V21
C19,19.895,19.895,19,21,19z

M26,24L34,28L26,32z
"/>
</svg>
